<svg width="440" height="16" viewBox="0 0 440 16" fill="none" xmlns="http://www.w3.org/2000/svg">
<path d="M179.239 2.34166C179.479 1.60486 180.521 1.60486 180.76 2.34166L181.616 4.97526C181.669 5.13565 181.77 5.27541 181.907 5.37455C182.043 5.47369 182.208 5.52714 182.376 5.52726H185.146C185.921 5.52726 186.243 6.51926 185.616 6.97526L183.376 8.60246C183.24 8.70169 183.138 8.84167 183.085 9.00234C183.033 9.16302 183.033 9.33613 183.085 9.49686L183.941 12.1305C184.181 12.8673 183.337 13.4809 182.709 13.0249L180.469 11.3977C180.333 11.2985 180.168 11.245 179.999 11.245C179.83 11.245 179.666 11.2985 179.529 11.3977L177.289 13.0249C176.662 13.4809 175.819 12.8673 176.058 12.1305L176.914 9.49686C176.966 9.33613 176.966 9.16302 176.914 9.00234C176.861 8.84167 176.76 8.70169 176.623 8.60246L174.384 6.97606C173.757 6.52006 174.08 5.52806 174.854 5.52806H177.623C177.792 5.52811 177.956 5.47473 178.093 5.37558C178.229 5.27643 178.331 5.13658 178.384 4.97606L179.24 2.34246L179.239 2.34166Z" fill="#2F302C"/>
<path d="M199.239 2.34166C199.479 1.60486 200.521 1.60486 200.76 2.34166L201.616 4.97526C201.669 5.13565 201.77 5.27541 201.907 5.37455C202.043 5.47369 202.208 5.52714 202.376 5.52726H205.146C205.921 5.52726 206.243 6.51926 205.616 6.97526L203.376 8.60246C203.24 8.70169 203.138 8.84167 203.085 9.00234C203.033 9.16302 203.033 9.33613 203.085 9.49686L203.941 12.1305C204.181 12.8673 203.337 13.4809 202.709 13.0249L200.469 11.3977C200.333 11.2985 200.168 11.245 199.999 11.245C199.83 11.245 199.666 11.2985 199.529 11.3977L197.289 13.0249C196.662 13.4809 195.819 12.8673 196.058 12.1305L196.914 9.49686C196.966 9.33613 196.966 9.16302 196.914 9.00234C196.861 8.84167 196.76 8.70169 196.623 8.60246L194.384 6.97606C193.757 6.52006 194.08 5.52806 194.854 5.52806H197.623C197.792 5.52811 197.956 5.47473 198.093 5.37558C198.229 5.27643 198.331 5.13658 198.384 4.97606L199.24 2.34246L199.239 2.34166Z" fill="#2F302C"/>
<path d="M219.239 2.34166C219.479 1.60486 220.521 1.60486 220.76 2.34166L221.616 4.97526C221.669 5.13565 221.77 5.27541 221.907 5.37455C222.043 5.47369 222.208 5.52714 222.376 5.52726H225.146C225.921 5.52726 226.243 6.51926 225.616 6.97526L223.376 8.60246C223.24 8.70169 223.138 8.84167 223.085 9.00234C223.033 9.16302 223.033 9.33613 223.085 9.49686L223.941 12.1305C224.181 12.8673 223.337 13.4809 222.709 13.0249L220.469 11.3977C220.333 11.2985 220.168 11.245 219.999 11.245C219.83 11.245 219.666 11.2985 219.529 11.3977L217.289 13.0249C216.662 13.4809 215.819 12.8673 216.058 12.1305L216.914 9.49686C216.966 9.33613 216.966 9.16302 216.914 9.00234C216.861 8.84167 216.76 8.70169 216.623 8.60246L214.384 6.97606C213.757 6.52006 214.08 5.52806 214.854 5.52806H217.623C217.792 5.52811 217.956 5.47473 218.093 5.37558C218.229 5.27643 218.331 5.13658 218.384 4.97606L219.24 2.34246L219.239 2.34166Z" fill="#2F302C"/>
<path d="M239.239 2.34166C239.479 1.60486 240.521 1.60486 240.76 2.34166L241.616 4.97526C241.669 5.13565 241.77 5.27541 241.907 5.37455C242.043 5.47369 242.208 5.52714 242.376 5.52726H245.146C245.921 5.52726 246.243 6.51926 245.616 6.97526L243.376 8.60246C243.24 8.70169 243.138 8.84167 243.085 9.00234C243.033 9.16302 243.033 9.33613 243.085 9.49686L243.941 12.1305C244.181 12.8673 243.337 13.4809 242.709 13.0249L240.469 11.3977C240.333 11.2985 240.168 11.245 239.999 11.245C239.83 11.245 239.666 11.2985 239.529 11.3977L237.289 13.0249C236.662 13.4809 235.819 12.8673 236.058 12.1305L236.914 9.49686C236.966 9.33613 236.966 9.16302 236.914 9.00234C236.861 8.84167 236.76 8.70169 236.623 8.60246L234.384 6.97606C233.757 6.52006 234.08 5.52806 234.854 5.52806H237.623C237.792 5.52811 237.956 5.47473 238.093 5.37558C238.229 5.27643 238.331 5.13658 238.384 4.97606L239.24 2.34246L239.239 2.34166Z" fill="#2F302C"/>
<path d="M259.239 2.34166C259.479 1.60486 260.521 1.60486 260.76 2.34166L261.616 4.97526C261.669 5.13565 261.77 5.27541 261.907 5.37455C262.043 5.47369 262.208 5.52714 262.376 5.52726H265.146C265.921 5.52726 266.243 6.51926 265.616 6.97526L263.376 8.60246C263.24 8.70169 263.138 8.84167 263.085 9.00234C263.033 9.16302 263.033 9.33613 263.085 9.49686L263.941 12.1305C264.181 12.8673 263.337 13.4809 262.709 13.0249L260.469 11.3977C260.333 11.2985 260.168 11.245 259.999 11.245C259.83 11.245 259.666 11.2985 259.529 11.3977L257.289 13.0249C256.662 13.4809 255.819 12.8673 256.058 12.1305L256.914 9.49686C256.966 9.33613 256.966 9.16302 256.914 9.00234C256.861 8.84167 256.76 8.70169 256.623 8.60246L254.384 6.97606C253.757 6.52006 254.08 5.52806 254.854 5.52806H257.623C257.792 5.52811 257.956 5.47473 258.093 5.37558C258.229 5.27643 258.331 5.13658 258.384 4.97606L259.24 2.34246L259.239 2.34166Z" fill="#2F302C"/>
</svg>
